<svg xmlns="http://www.w3.org/2000/svg" xmlns:xlink="http://www.w3.org/1999/xlink" xml:space="preserve" width="1.83812in" height="0.935327in" style="shape-rendering:geometricPrecision; text-rendering:geometricPrecision; image-rendering:optimizeQuality; fill-rule:evenodd; clip-rule:evenodd" viewBox="0 0 1838 935"> <defs>  <style type="text/css">   <![CDATA[    .fil2 {fill:#FA9E0D}    .fil1 {fill:#00858A}    .fil0 {fill:#00858A;fill-rule:nonzero}   ]]>  </style> </defs> <g id="Layer_x0020_1">  <metadata id="CorelCorpID_0Corel-Layer"></metadata>  <g id="_989968736">   <path class="fil0" d="M402 674l0 0 28 -146c5,-1 10,-2 16,-2 6,-1 13,-1 20,-1 7,0 14,0 20,2 7,2 13,4 18,8 4,4 7,8 10,12 2,5 3,11 3,18 0,9 -2,17 -5,23 -4,7 -8,13 -14,17 -6,5 -13,8 -21,11 -8,2 -16,3 -25,3 -5,0 -10,0 -14,-1l-11 56 -25 0zm50 -127l0 0 -10 50c2,0 4,1 6,1 3,0 5,0 8,0 7,0 13,-1 18,-4 6,-3 10,-7 13,-11 3,-5 5,-10 5,-16 0,-6 -2,-10 -4,-13 -2,-3 -5,-5 -9,-7 -4,-1 -8,-2 -13,-2 -6,0 -11,1 -14,2zm161 127l0 0 -24 0c0,-3 0,-7 1,-11 0,-4 0,-9 1,-13l-1 0c-5,10 -11,16 -18,20 -6,4 -13,6 -20,6 -6,0 -12,-1 -17,-4 -4,-3 -8,-8 -11,-13 -2,-6 -4,-12 -4,-19 0,-9 2,-18 5,-27 3,-9 8,-17 14,-25 7,-7 15,-13 24,-17 9,-4 20,-6 33,-6 6,0 12,0 17,1 6,1 11,2 15,3l-11 56c-1,6 -2,11 -3,17 0,6 -1,12 -1,17 0,6 0,11 0,15zm-19 -61l0 0 5 -28c-2,0 -6,-1 -10,-1 -6,0 -12,2 -17,5 -5,3 -9,7 -13,12 -4,5 -7,10 -9,16 -2,6 -3,12 -3,18 0,4 0,7 2,11 1,3 2,5 4,7 3,2 6,3 9,3 4,0 8,-2 13,-5 4,-3 8,-8 11,-14 3,-7 6,-14 8,-24zm73 61l0 0 -26 0 14 -74c3,-13 4,-24 6,-33l22 0 -2 19 0 0c5,-7 11,-12 18,-16 6,-4 13,-5 21,-5 5,0 10,1 14,3 4,2 7,5 10,9 2,5 3,10 3,17 0,2 0,5 0,9 -1,3 -1,6 -2,9l-11 62 -26 0 11 -61c1,-1 1,-4 1,-6 0,-2 1,-4 1,-6 0,-5 -1,-8 -3,-11 -2,-3 -6,-5 -11,-5 -4,0 -8,2 -12,5 -4,3 -8,7 -11,13 -4,6 -6,13 -8,21l-9 50zm191 0l0 0 -24 0c0,-3 1,-7 1,-11 0,-4 1,-9 1,-13l-1 0c-5,10 -11,16 -17,20 -7,4 -14,6 -21,6 -6,0 -12,-1 -16,-4 -5,-3 -9,-8 -11,-13 -3,-6 -4,-12 -4,-19 0,-9 1,-18 4,-27 4,-9 8,-17 15,-25 6,-7 14,-13 23,-17 10,-4 20,-6 33,-6 6,0 12,0 17,1 6,1 11,2 15,3l-11 56c-1,6 -2,11 -2,17 -1,6 -2,12 -2,17 0,6 0,11 0,15zm-19 -61l0 0 6 -28c-3,0 -6,-1 -11,-1 -6,0 -11,2 -16,5 -5,3 -10,7 -14,12 -4,5 -6,10 -9,16 -2,6 -3,12 -3,18 0,4 1,7 2,11 1,3 2,5 5,7 2,2 5,3 9,3 4,0 8,-2 12,-5 4,-3 8,-8 11,-14 4,-7 6,-14 8,-24zm121 37l0 0 1 20c-3,2 -8,3 -13,4 -5,1 -11,2 -18,2 -9,0 -17,-2 -23,-5 -7,-4 -11,-9 -15,-15 -4,-7 -5,-14 -5,-23 0,-9 1,-18 5,-26 3,-8 8,-16 14,-22 6,-6 13,-11 21,-15 9,-4 18,-5 28,-5 4,0 9,0 13,1 3,1 6,2 9,3l-7 19c-2,0 -4,-1 -7,-2 -3,-1 -6,-1 -9,-1 -9,0 -16,3 -22,7 -6,4 -10,10 -14,17 -3,7 -4,14 -4,21 0,8 2,15 6,19 4,4 10,6 17,6 5,0 9,0 13,-1 4,-1 7,-2 10,-4zm102 -1l0 0 2 19c-5,2 -11,4 -18,6 -6,1 -13,2 -19,2 -10,0 -18,-2 -25,-6 -6,-3 -11,-9 -14,-15 -3,-7 -5,-14 -5,-23 0,-8 1,-16 4,-24 3,-8 7,-15 12,-22 6,-6 12,-12 19,-15 8,-4 16,-6 25,-6 11,0 19,2 26,8 6,5 9,12 9,22 0,9 -3,16 -9,21 -6,5 -14,9 -25,11 -10,2 -22,3 -36,3 0,2 0,4 0,7 1,3 2,6 3,8 2,4 5,6 8,8 4,2 9,3 14,3 6,0 11,-1 16,-2 5,-1 9,-3 13,-5zm-8 -54l0 0 0 0c0,-4 -2,-7 -4,-8 -3,-2 -6,-3 -10,-3 -5,0 -10,1 -14,4 -4,3 -7,6 -10,10 -3,4 -5,8 -6,13 9,0 17,0 23,-1 7,-1 12,-3 15,-5 4,-3 6,-6 6,-10zm125 79l0 0 -23 0c0,-3 0,-7 0,-11 1,-4 1,-9 2,-13l-1 0c-5,10 -11,16 -18,20 -7,4 -13,6 -20,6 -7,0 -12,-1 -17,-4 -5,-3 -8,-8 -11,-13 -3,-6 -4,-12 -4,-19 0,-9 2,-18 5,-27 3,-9 8,-17 14,-25 6,-7 14,-13 24,-17 9,-4 20,-6 32,-6 6,0 12,0 18,1 6,1 11,2 15,3l-11 56c-1,6 -2,11 -3,17 0,6 -1,12 -1,17 -1,6 -1,11 -1,15zm-18 -61l0 0 5 -28c-2,0 -6,-1 -10,-1 -6,0 -12,2 -17,5 -5,3 -9,7 -13,12 -4,5 -7,10 -9,16 -2,6 -3,12 -3,18 0,4 0,7 1,11 1,3 3,5 5,7 2,2 5,3 9,3 4,0 8,-2 12,-5 5,-3 8,-8 12,-14 3,-7 6,-14 8,-24zm110 60l0 0 27 -145c5,-1 11,-2 17,-2 6,-1 12,-1 19,-1 7,0 14,0 20,2 6,1 11,3 15,7 5,2 8,6 11,10 2,4 3,9 4,15 -1,6 -2,12 -5,17 -3,4 -6,9 -11,12 -5,3 -10,5 -15,7l0 0c7,3 13,6 17,12 4,6 6,13 7,21 -1,8 -2,15 -6,21 -4,5 -8,10 -14,14 -6,4 -13,7 -22,9 -9,2 -19,3 -30,3 -7,0 -14,0 -20,-1 -6,0 -10,-1 -14,-1zm49 -127l0 0 -8 40 12 0c7,0 12,-1 17,-2 5,-2 9,-5 12,-9 3,-3 4,-8 4,-13 0,-6 -2,-10 -6,-13 -4,-3 -10,-4 -17,-4 -3,0 -6,0 -8,0 -3,0 -5,1 -6,1zm-12 59l0 0 -9 49c5,1 9,1 14,1 6,0 12,-1 18,-3 5,-2 10,-5 13,-9 4,-4 5,-9 6,-16 -1,-5 -2,-9 -4,-13 -3,-3 -7,-5 -11,-7 -4,-1 -9,-2 -14,-2l-13 0zm111 69l0 0 -26 0 20 -107 26 0 -20 107zm11 -122l0 0 0 0c-4,-1 -7,-2 -9,-4 -3,-3 -4,-6 -4,-10 0,-5 2,-8 5,-11 3,-3 6,-4 11,-4 4,0 7,1 10,3 2,3 3,6 3,10 0,5 -1,9 -4,11 -3,3 -7,5 -12,5zm62 124l0 0 -1 0c-9,0 -16,-2 -23,-6 -7,-3 -11,-8 -15,-15 -3,-7 -5,-14 -5,-23 0,-9 1,-18 4,-26 3,-8 7,-15 13,-21 5,-7 12,-11 19,-15 8,-4 16,-5 25,-5 10,0 18,2 25,6 6,4 11,9 14,16 3,6 5,14 5,22 0,9 -1,17 -4,26 -3,8 -8,15 -13,21 -6,6 -12,11 -19,15 -8,3 -16,5 -25,5zm3 -19l0 0 0 0c5,-1 9,-2 13,-5 4,-3 7,-7 10,-11 3,-5 5,-10 6,-16 2,-5 3,-11 3,-16 0,-4 -1,-8 -2,-11 -1,-4 -4,-7 -7,-10 -3,-2 -7,-4 -12,-4 -5,0 -9,2 -13,5 -4,3 -8,7 -11,11 -2,5 -4,10 -6,16 -1,5 -2,10 -2,16 0,7 2,13 5,18 4,4 9,6 16,7zm97 -110l0 0 26 -8 -5 28 24 0 -4 20 -24 0 -8 43c-1,2 -1,5 -2,8 0,2 0,5 0,7 0,3 0,5 2,7 1,2 4,3 7,3 3,0 6,-1 9,-1l-2 20c-2,1 -5,1 -8,2 -3,0 -6,0 -9,0 -9,0 -15,-2 -19,-6 -4,-4 -6,-10 -6,-16 0,-3 0,-6 0,-9 1,-3 1,-7 2,-11l9 -47 -14 0 4 -20 14 0 4 -20zm128 102l0 0 3 19c-6,2 -12,4 -18,6 -7,1 -13,2 -20,2 -10,0 -18,-2 -25,-6 -6,-3 -11,-9 -14,-15 -3,-7 -5,-14 -5,-23 0,-8 2,-16 5,-24 2,-8 6,-15 12,-22 5,-6 11,-12 19,-15 7,-4 15,-6 25,-6 10,0 19,2 25,8 6,5 9,12 9,22 0,9 -3,16 -9,21 -6,5 -14,9 -24,11 -11,2 -23,3 -37,3 0,2 0,4 1,7 0,3 1,6 2,8 2,4 5,6 9,8 3,2 8,3 13,3 6,0 11,-1 16,-2 5,-1 9,-3 13,-5zm-8 -54l0 0 0 0c0,-4 -1,-7 -4,-8 -2,-2 -5,-3 -10,-3 -5,0 -10,1 -14,4 -4,3 -7,6 -10,10 -2,4 -4,8 -5,13 9,0 16,0 23,-1 6,-1 11,-3 15,-5 3,-3 5,-6 5,-10zm109 55l0 0 1 20c-3,2 -7,3 -12,4 -6,1 -12,2 -18,2 -9,0 -17,-2 -24,-5 -6,-4 -11,-9 -14,-15 -4,-7 -6,-14 -6,-23 0,-9 2,-18 5,-26 4,-8 8,-16 14,-22 6,-6 14,-11 22,-15 8,-4 17,-5 27,-5 5,0 9,0 13,1 4,1 7,2 9,3l-6 19c-2,0 -5,-1 -7,-2 -3,-1 -6,-1 -10,-1 -8,0 -15,3 -21,7 -6,4 -11,10 -14,17 -3,7 -5,14 -5,21 0,8 2,15 6,19 5,4 10,6 18,6 5,0 9,0 13,-1 3,-1 7,-2 9,-4z"></path>   <g>    <g>     <path class="fil1" d="M790 853l1 0c4,0 8,-2 12,-4 2,-2 5,-3 9,-3 2,0 5,0 7,1 3,1 5,2 8,4 2,2 3,4 4,7l1 6 1 9 0 5 0 4 0 3c0,1 -1,2 -3,2 -2,1 -4,0 -5,-1 -1,-2 -2,-4 -2,-6l-2 -10c0,-1 0,-3 -1,-5l-1 -4c-1,-3 -3,-5 -6,-5 -2,0 -3,0 -4,1 -5,1 -9,3 -12,5 -5,3 -9,6 -12,10l-10 13c-1,1 -3,2 -5,2l-3 0c-2,-1 -3,-2 -3,-4 0,0 0,-1 1,-2 3,-8 6,-16 9,-22l3 -11 4 -11c0,-2 2,-3 5,-4l3 1c0,0 1,1 2,3 0,1 0,3 -1,5l-1 3 -1 3 0 2c0,1 1,2 2,3z"></path>     <path class="fil1" d="M776 809c-1,1 -2,2 -5,3 -2,0 -3,-1 -5,-3 -1,-1 -1,-3 -2,-5l0 -3c0,-2 0,-3 1,-5 1,-1 3,-2 5,-2 2,0 4,0 5,2 1,1 2,3 2,4l1 3c0,2 -1,4 -2,6z"></path>     <path class="fil1" d="M759 838l-4 5 -3 5c-2,3 -4,6 -6,10 -2,4 -4,9 -5,14l-1 7 -2 7c-1,2 -2,3 -4,4 -1,0 -2,0 -3,-1 -2,-1 -3,-3 -3,-6l1 -7c1,-7 3,-14 5,-20 2,-7 5,-13 8,-18 0,-1 1,-3 2,-4 0,-1 1,-3 2,-4 1,-2 3,-3 5,-3 2,0 4,1 6,3 1,1 2,2 2,4l1 2c0,1 -1,2 -1,2z"></path>    </g>    <g>     <path class="fil1" d="M1385 800l-3 4 -3 4 -2 3 -2 3 -2 3 -1 2 0 1 16 -3 4 0 4 0c1,2 2,3 2,4 -1,1 -1,2 -3,3l-4 1 -16 4 -8 1c-1,1 -2,2 -3,4l-1 1 -1 2c-1,2 -3,5 -4,9 -2,4 -4,8 -5,11 0,2 0,3 -1,5 0,2 0,3 0,5l0 3c0,3 2,6 5,8l3 0c3,0 6,-1 8,-3 2,-1 4,-2 6,-4 1,-1 2,-2 3,-3 1,-1 2,-1 3,-1 0,0 1,0 2,1 0,1 0,2 0,3 -1,2 -2,4 -4,6l-7 5c-6,4 -11,6 -17,6 -8,0 -14,-4 -16,-12 0,-2 0,-3 0,-3l0 -2c0,-3 0,-6 1,-8 0,-2 1,-5 2,-8 2,-7 5,-13 7,-19 0,0 -1,0 -6,1l-3 1 -3 0 -2 0c-2,0 -2,-1 -3,-3l0 -2c-1,-1 0,-2 0,-2 0,-1 0,-2 1,-3 3,-2 1,-3 10,-4l7 -1 6 -1 1 -1 3 -4 7 -10c2,-4 5,-8 7,-12 2,-1 3,-3 3,-3 2,-2 3,-3 5,-5 1,-1 3,-1 4,-1 1,0 2,0 3,0 1,1 2,2 2,3 0,2 0,4 -1,6 -1,1 -3,3 -4,5z"></path>     <path class="fil1" d="M1288 846c1,0 3,-1 8,-4 5,-2 9,-4 11,-4l5 -1 4 -2 5 0 5 0c0,0 1,1 1,2l0 3c0,1 0,2 -1,3 -4,1 -8,2 -10,3 -3,0 -7,2 -10,4l-4 2 -4 3c-3,1 -6,3 -8,6l-5 6 -4 6c-3,3 -6,8 -9,12 0,1 -2,2 -3,2l-5 0c0,1 -1,0 -1,0l-1 -2 -1 -3 0 -2 1 -3 1 -3 3 -7 3 -7c1,-3 2,-5 2,-8 1,-3 2,-6 3,-8 0,-2 1,-4 1,-6 0,-2 1,-4 3,-6 1,-1 2,-1 5,-2l1 0c2,0 3,0 4,1 1,2 1,4 1,5l0 3 -1 3 0 4z"></path>     <path class="fil1" d="M1181 849c0,1 -1,3 -1,3 0,1 0,2 0,3 -1,2 -2,4 -3,6l-9 8c-9,7 -17,13 -27,16l-5 2c-3,-1 -5,-3 -6,-5 1,-1 1,-2 3,-3l3 -2c5,-2 11,-5 16,-8 3,-2 5,-4 7,-6 2,-3 4,-5 6,-8l1 -4c0,-2 -1,-3 -2,-4 -3,-3 -7,-5 -11,-5 -4,0 -8,1 -12,1l-1 1c-2,4 -5,11 -8,20l-3 14 -4 14 -3 13 -3 13c-2,7 -3,11 -4,12l-4 3c-2,1 -3,2 -5,2l-1 0 -1 -1 -1 -1 0 -3 0 -3 2 -7c3,-12 6,-25 10,-39l5 -19 7 -19 -1 -2 1 -1 0 -4c0,-1 1,-2 3,-3l2 -1 3 -2 3 0 4 0 3 0 4 0 7 2 3 0c1,0 2,1 4,1l5 2c2,1 4,2 6,3 1,2 3,3 4,5 1,1 2,3 3,6z"></path>     <path class="fil1" d="M1108 849c0,1 0,3 0,3 0,1 0,2 -1,3 0,2 -1,4 -3,6l-9 8c-8,7 -17,13 -27,16l-5 2c-2,-1 -4,-3 -5,-5 0,-1 1,-2 2,-3l4 -2c5,-2 10,-5 16,-8 2,-2 5,-4 7,-6 2,-3 4,-5 5,-8l1 -4c0,-2 0,-3 -1,-4 -3,-3 -7,-5 -11,-5 -4,0 -8,1 -12,1l-1 1c-2,4 -5,11 -8,20l-4 14 -3 14 -4 13 -2 13c-2,7 -3,11 -4,12l-5 3c-1,1 -3,2 -4,2l-2 0 0 -1 -1 -1 0 -3 0 -3 2 -7c3,-12 6,-25 9,-39l6 -19 6 -19 0 -2 0 -1 1 -4c0,-1 1,-2 3,-3l2 -1 3 -2 3 0 4 0 3 0 4 0 7 2 3 0c0,0 2,1 4,1l5 2c2,1 4,2 5,3 2,2 4,3 5,5 1,1 2,3 2,6z"></path>     <path class="fil1" d="M1026 854l0 5 0 4 0 8 0 17c0,1 0,2 -2,2l-2 1 -1 -1c-1,0 -2,-1 -3,-2 -2,-2 -3,-5 -3,-9l-1 -6 0 -4 0 -6 0 -3c0,-1 1,-2 1,-4 0,0 -1,-1 -1,-1l-1 1c-6,5 -12,10 -16,14 -6,6 -12,11 -16,15 -3,2 -7,4 -11,4l-3 0 -3 -1c-3,-1 -5,-2 -7,-5 -1,-1 -2,-2 -2,-4 -1,-1 -1,-2 -1,-4 0,-4 0,-7 1,-10 0,-2 1,-5 2,-8 1,-3 3,-6 4,-8 1,-3 2,-5 4,-8 2,-2 4,-4 7,-4l2 1c2,0 3,2 4,4 0,1 0,2 0,3l-1 2 -3 5 -3 6c-2,3 -3,6 -4,11 0,2 1,4 3,5 1,0 2,0 3,0l3 0c3,-2 6,-5 9,-8 2,-3 5,-6 8,-9 5,-5 8,-8 11,-10 4,-4 7,-7 11,-10 2,0 3,-1 4,-1 3,0 5,1 7,3 1,1 2,3 2,6l0 1 -1 5 -1 3z"></path>     <path class="fil1" d="M951 833c-1,1 -3,2 -4,3 -2,0 -4,1 -6,1l-2 -1 -1 0 -3 0 -4 1 -9 2c-3,1 -5,3 -6,6 -1,0 -1,1 -1,2 0,2 0,3 1,3 1,2 3,3 5,5l5 2 5 3c2,1 3,3 4,5l0 3c0,2 -1,4 -3,6l-9 6c-4,3 -9,4 -14,6 -5,1 -10,2 -15,2l-2 -1 -2 0c-2,-1 -2,-1 -3,-3 0,-1 1,-2 3,-3 5,0 10,-1 15,-3 5,-1 9,-4 12,-7 1,-1 1,-2 1,-3 0,-1 -1,-2 -3,-4l-7 -4c-4,-1 -6,-4 -7,-7 -1,-2 -1,-4 -1,-5 0,-2 0,-4 1,-5 2,-5 5,-8 9,-10 4,-3 8,-5 12,-6l9 -2 10 -1c1,0 3,0 5,1 2,1 4,2 6,5l-1 3z"></path>     <path class="fil1" d="M1242 837c2,0 5,1 7,2 2,1 3,3 4,5 1,2 1,4 1,6 0,2 0,3 0,4 0,1 -1,2 -1,4 -3,4 -5,7 -8,11 -5,4 -10,8 -16,11 -6,3 -12,5 -19,7l-2 0 -2 0 -3 0 -2 0c-2,-1 -5,-2 -8,-3 -5,-3 -7,-6 -7,-11 0,-1 0,-3 1,-5 3,-7 6,-13 9,-17 4,-5 10,-9 16,-13 6,-3 13,-6 19,-7l3 -1c1,0 2,0 3,1 2,1 4,2 5,4l0 2zm-3 26c3,-3 4,-5 4,-8 0,-3 -1,-5 -4,-8 -3,-1 -5,-1 -7,-1 -2,0 -5,0 -7,1 -5,1 -9,3 -13,6 -2,2 -4,4 -6,7 -2,2 -4,5 -5,8 -1,1 -2,3 -2,4 0,1 1,2 1,3 1,2 3,2 8,2 3,0 6,0 9,-1 2,-1 5,-2 8,-4l7 -3c3,-2 5,-4 7,-6z"></path>    </g>    <g>     <path class="fil1" d="M1565 830l5 0c2,0 3,0 4,1 0,1 1,1 1,2l-1 2c0,1 -1,2 -3,2 -3,1 -7,1 -10,2l-6 1 -6 0c-4,9 -7,18 -11,27 -1,5 -3,9 -4,14 -2,5 -4,9 -6,14 -1,1 -3,3 -5,3 -1,0 -3,-1 -5,-2 -1,-1 -1,-3 -1,-5 2,-8 4,-16 8,-25l6 -12 5 -12c-2,0 -6,1 -10,2 -2,1 -5,2 -7,2l-2 -1c-2,0 -3,-1 -4,-2 -1,-2 0,-4 2,-6l6 -2 7 -2 6 -1 8 -1 4 -7 3 -7 4 -6 4 -7c3,-3 5,-6 8,-8 0,0 2,-1 3,-1l6 0c2,0 5,1 7,3 2,2 3,4 4,7 0,2 -1,3 -2,4l-2 0c-1,0 -2,0 -3,-1 -1,-1 -2,-2 -4,-3 -1,0 -3,1 -4,2 -3,4 -6,7 -8,11l-3 5 -4 7 3 0 3 0 4 0z"></path>     <path class="fil1" d="M1497 837c2,0 4,1 6,2 2,1 4,3 5,5 1,2 1,4 1,6 0,2 0,3 0,4 0,1 -1,2 -2,4 -2,4 -4,7 -7,11 -5,4 -10,8 -16,11 -6,3 -12,5 -19,7l-2 0 -3 0 -2 0 -2 0c-3,-1 -5,-2 -8,-3 -5,-3 -8,-6 -8,-11 0,-1 1,-3 2,-5 3,-7 6,-13 9,-17 4,-5 9,-9 16,-13 6,-3 13,-6 19,-7l3 -1c1,0 2,0 3,1 2,1 3,2 4,4l1 2zm-3 26c3,-3 4,-5 4,-8 0,-3 -2,-5 -4,-8 -3,-1 -5,-1 -8,-1 -2,0 -4,0 -6,1 -5,1 -9,3 -13,6 -2,2 -4,4 -6,7 -3,2 -4,5 -6,8 0,1 -1,3 -1,4 0,1 0,2 1,3 0,2 3,2 8,2 3,0 6,0 8,-1 3,-1 6,-2 9,-4l7 -3c3,-2 5,-4 7,-6z"></path>    </g>    <g>     <path class="fil1" d="M622 853l2 0c3,0 7,-2 11,-4 3,-2 6,-3 9,-3 3,0 5,0 8,1 2,1 5,2 7,4 2,2 4,4 5,7l1 6 1 9 0 5 0 4 0 3c0,1 -2,2 -4,2 -2,1 -4,0 -5,-1 -1,-2 -2,-4 -2,-6l-1 -10c0,-1 -1,-3 -1,-5l-1 -4c-1,-3 -4,-5 -7,-5 -1,0 -2,0 -3,1 -5,1 -9,3 -12,5 -5,3 -9,6 -12,10l-10 13c-2,1 -3,2 -5,2l-3 0c-2,-1 -3,-2 -3,-4 0,0 0,-1 0,-2 4,-8 6,-16 9,-22l4 -11 3 -11c0,-2 2,-3 5,-4l3 1c1,0 2,1 2,3 1,1 0,3 0,5l-1 3 -1 3 -1 2c0,1 1,2 2,3z"></path>     <path class="fil1" d="M479 800l-2 5 -3 3 -2 3 -2 3 -2 3 -1 2 0 1 8 -1 5 -1 4 1c1,1 1,2 2,3 -1,2 -2,3 -3,3l-5 2 -8 2 -8 2c-1,0 -2,1 -3,3l-1 1 -1 2c-1,2 -3,5 -5,9 -2,4 -3,8 -4,11 0,2 -1,3 -1,5 0,2 0,3 0,5l0 3c0,3 1,6 4,8l4 0c3,0 5,-1 8,-3 2,-1 4,-2 5,-3 2,-2 3,-3 4,-4 1,-1 2,-1 3,-1 0,0 1,0 1,1 1,1 1,2 1,3 -1,2 -2,4 -5,6l-6 5c-6,4 -12,6 -17,6 -9,0 -14,-4 -16,-12 0,-2 0,-3 0,-3l0 -2c0,-3 0,-6 0,-8 1,-2 1,-5 2,-8 3,-6 5,-13 8,-19 0,0 -3,0 -8,2l-10 2 -2 0 -3 0c-1,0 -2,-1 -3,-3l0 -2c0,-1 0,-2 0,-2 0,-1 1,-2 2,-3 2,-2 7,-4 15,-6l10 -1 6 -1 1 -1 3 -4 6 -10c3,-4 6,-8 8,-12 1,-1 2,-2 3,-3 2,-2 3,-3 5,-4 1,-2 2,-2 4,-2 1,0 2,0 3,0 1,1 2,2 2,3 0,2 0,4 -2,6 -1,1 -2,3 -4,5z"></path>     <path class="fil1" d="M400 856c-1,1 -2,2 -3,2l-3 0c-2,0 -3,0 -4,-2 -1,-1 -2,-2 -3,-2l-3 -1c-3,0 -5,1 -8,3l-4 3 -4 4 -6 6c-1,1 -2,3 -2,4 0,1 0,1 1,2 0,0 1,0 2,0l2 -1c3,-1 6,-3 9,-5l4 -3 5 -2 3 -1c2,0 3,1 5,2l6 6c1,1 2,3 4,4 1,1 3,2 5,3l5 2 6 2c1,0 2,1 3,3l0 3c0,1 0,2 0,2 -1,1 -1,1 -2,1l-2 0 -1 0c-3,0 -6,0 -8,-1 -3,-2 -6,-4 -10,-6 -1,-1 -3,-2 -6,-4 -2,-3 -4,-4 -6,-4l-1 0c-5,0 -9,2 -14,7 -5,4 -9,6 -14,7 -2,1 -4,1 -5,1 -2,0 -4,0 -6,-2 -2,0 -2,-1 -2,-3l0 -4c2,-8 7,-17 14,-24 7,-7 14,-13 23,-18 2,-1 5,-2 10,-3l2 0c4,0 6,1 8,3 1,3 2,5 2,8 0,3 -1,5 -2,8z"></path>     <path class="fil1" d="M349 840l-6 7 -4 5 -5 6 -6 6c-2,2 -4,4 -6,6 -3,3 -5,5 -8,7 -5,4 -10,8 -16,12 -1,1 -3,2 -6,2l-1 0c-2,0 -3,0 -4,-1 -4,-3 -5,-7 -5,-12l0 -7 0 -3 0 -3 0 -5 0 -7 0 -4c0,-1 1,-3 1,-4 0,-2 0,-3 1,-4 0,-5 2,-8 6,-10 1,0 2,0 4,-1l3 1c1,0 1,1 1,4l-1 9 0 4c0,1 0,2 -1,5l-1 6 0 8 0 5 1 2c0,1 0,2 1,2 3,-1 7,-4 13,-10l7 -7 5 -5 7 -8 4 -4 3 -5 4 -5c2,-1 4,-2 6,-2 2,0 4,1 5,2l0 2c0,1 0,2 0,2l-2 4z"></path>     <path class="fil1" d="M143 853l2 0c3,0 7,-2 11,-4 3,-2 6,-3 9,-3 3,0 5,0 8,1 2,1 5,2 7,4 2,2 4,4 5,7l0 6 2 9 0 5 0 4 0 3c-1,1 -2,2 -4,2 -2,1 -4,0 -5,-1 -1,-2 -2,-4 -2,-6l-1 -10c0,-1 -1,-3 -1,-5l-2 -4c-1,-3 -3,-5 -6,-5 -1,0 -3,0 -4,1 -4,1 -8,3 -11,5 -6,3 -10,6 -13,10l-10 13c-1,1 -3,2 -4,2l-3 0c-2,-1 -4,-2 -4,-4 0,0 1,-1 1,-2 3,-8 6,-16 9,-22l3 -11 4 -11c0,-2 2,-3 5,-4l3 1c1,0 2,1 2,3 0,1 0,3 0,5l-2 3 0 3 -1 2c0,1 1,2 2,3z"></path>     <path class="fil1" d="M61 853l1 0c4,0 7,-2 12,-4 2,-2 5,-3 9,-3 2,0 5,0 7,1 3,1 5,2 8,4 2,2 3,4 4,7l1 6 1 9 0 5 0 4 0 3c0,1 -1,2 -3,2 -2,1 -4,0 -6,-1 -1,-2 -1,-4 -2,-6l-1 -10c0,-1 0,-3 -1,-5l-1 -4c-1,-3 -3,-5 -6,-5 -2,0 -3,0 -4,1 -5,1 -9,3 -12,5 -5,3 -9,6 -12,10l-10 13c-1,1 -3,2 -5,2l-3 0c-2,-1 -3,-2 -3,-4 0,0 0,-1 1,-2 3,-8 6,-16 8,-22l4 -11 3 -11c1,-2 2,-3 5,-4l3 1c1,0 2,1 3,3 0,1 0,3 -1,5l-1 3 -1 3 0 2c0,1 0,2 2,3z"></path>     <path class="fil1" d="M46 801c-8,15 -15,31 -21,46l-6 15 -6 16 -5 16c-1,0 -1,1 -2,1 -1,0 -2,0 -2,-1 -3,-2 -4,-5 -4,-9 0,-4 1,-7 2,-11l6 -20c2,-7 4,-13 6,-19l7 -21c2,-3 3,-7 5,-10 1,-4 3,-7 4,-11 1,-2 2,-3 4,-5 1,-1 2,-2 4,-2 2,0 3,0 3,0 1,1 2,1 3,3 1,1 1,3 2,5l1 1 0 2c0,1 -1,3 -1,4z"></path>     <path class="fil1" d="M257 837c2,0 4,1 6,2 2,1 3,3 4,5 1,2 2,4 2,6 0,2 -1,3 -1,4 0,1 -1,2 -1,4 -3,4 -5,7 -8,11 -4,4 -10,8 -16,11 -6,3 -12,5 -19,7l-2 0 -2 0 -2 0 -3 0c-2,-1 -5,-2 -8,-3 -5,-3 -7,-6 -7,-11 0,-1 0,-3 1,-5 3,-7 6,-13 10,-17 4,-5 9,-9 16,-13 6,-3 12,-6 19,-7l2 -1c2,0 3,0 4,1 1,1 3,2 4,4l1 2zm-3 26c2,-3 3,-5 3,-8 0,-3 -1,-5 -4,-8 -2,-1 -5,-1 -7,-1 -2,0 -5,0 -7,1 -5,1 -9,3 -13,6 -2,2 -4,4 -6,7 -2,2 -4,5 -5,8 -1,1 -1,3 -1,4 0,1 0,2 0,3 1,2 4,2 9,2 2,0 5,0 8,-1 2,-1 5,-2 8,-4l8 -3c2,-2 5,-4 7,-6z"></path>     <path class="fil1" d="M580 837c2,0 4,1 6,2 2,1 3,3 4,5 1,2 1,4 1,6 0,2 0,3 0,4 0,1 -1,2 -1,4 -3,4 -5,7 -8,11 -4,4 -10,8 -16,11 -6,3 -12,5 -19,7l-2 0 -2 0 -2 0 -3 0c-2,-1 -5,-2 -8,-3 -5,-3 -7,-6 -7,-11 0,-1 0,-3 1,-5 3,-7 6,-13 10,-17 3,-5 9,-9 15,-13 7,-3 13,-6 20,-7l2 -1c2,0 3,0 3,1 2,1 4,2 5,4l1 2zm-3 26c2,-3 3,-5 3,-8 0,-3 -1,-5 -4,-8 -2,-1 -5,-1 -7,-1 -2,0 -5,0 -7,1 -5,1 -9,3 -13,6 -2,2 -4,4 -6,7 -2,2 -4,5 -5,8 -1,1 -2,3 -2,4 0,1 1,2 1,3 1,2 4,2 9,2 2,0 5,0 8,-1 2,-1 5,-2 8,-4l8 -3c2,-2 4,-4 7,-6z"></path>     <path class="fil1" d="M537 809c0,1 -2,2 -4,3 -3,0 -4,-1 -6,-3 -1,-1 -1,-3 -2,-5l0 -3c0,-2 0,-3 1,-5 2,-1 3,-2 5,-2 2,0 4,0 5,2 1,1 2,3 3,4l0 3c0,2 -1,4 -2,6zm-17 29l-3 5 -4 5c-2,3 -4,6 -6,10 -2,4 -3,9 -5,14l-1 7 -2 7c0,2 -2,3 -3,4 -1,0 -3,0 -4,-1 -2,-1 -2,-3 -2,-6l0 -7c1,-7 3,-14 5,-20 2,-7 5,-13 8,-18 0,-1 1,-3 2,-4 1,-1 2,-3 2,-4 2,-2 3,-3 5,-3 3,0 5,1 6,3 1,1 2,2 3,4l0 2c0,1 0,2 -1,2z"></path>    </g>    <g>     <path class="fil1" d="M1757 830l5 0c2,0 3,0 4,1 1,1 1,1 2,2l-1 2c-1,1 -2,2 -3,2 -3,1 -7,1 -11,2l-6 1 -5 0c-4,9 -8,18 -11,27 -2,5 -3,9 -5,14 -2,5 -3,9 -5,14 -2,1 -3,3 -5,3 -2,0 -3,-1 -5,-2 -1,-1 -2,-3 -2,-5 2,-8 5,-16 9,-25l5 -12 6 -12c-3,0 -6,1 -10,2 -3,1 -5,2 -7,2l-3 -1c-1,0 -2,-1 -4,-2 0,-2 1,-4 2,-6l7 -2 7 -2 6 -1 8 -1 3 -7 4 -7 4 -6 4 -7c2,-3 5,-6 7,-8 1,0 2,-1 4,-1l5 0c3,0 5,1 7,3 2,2 4,4 5,7 0,2 -1,3 -3,4l-1 0c-1,0 -2,0 -3,-1 -1,-1 -3,-2 -4,-3 -2,0 -3,1 -5,2 -3,4 -5,7 -7,11l-4 5 -3 7 3 0 3 0 3 0z"></path>     <path class="fil1" d="M1663 791l-17 38c-3,6 -5,13 -6,21 -2,8 -3,16 -3,25 0,2 1,4 2,5 0,0 2,1 3,1l1 0c2,-1 3,0 4,2 0,1 0,2 0,2 0,1 -1,1 -1,2 -3,2 -5,2 -8,2 -3,0 -5,-1 -8,-2 -1,-1 -2,-3 -3,-5l-1 -3 0 -3 0 -4 0 -2c0,-2 0,-2 1,-3 1,-13 4,-26 7,-37 1,-3 2,-7 3,-10 1,-4 3,-7 4,-11 1,-3 2,-6 4,-9 1,-3 2,-6 4,-9l2 -5c1,-1 3,-2 6,-3 2,0 4,0 5,2 1,1 1,2 1,4l0 2z"></path>     <path class="fil1" d="M1810 859c-5,4 -10,7 -16,10 -6,2 -12,3 -18,3 -1,1 -2,3 -2,4 0,1 0,2 1,3 0,1 1,2 2,3 1,0 3,1 5,1l1 0c1,0 1,0 2,0 0,-1 1,-1 1,-1 1,0 2,0 2,0 1,0 1,0 2,-1 3,0 6,-1 9,-2l3 -2 4 -1c2,-1 3,0 4,1l0 1c0,1 0,2 -2,3 -9,6 -19,9 -29,9l-2 0 -2 0c-3,-1 -6,-1 -8,-3 -3,-1 -5,-3 -6,-6l-1 -3 0 -4c0,-1 0,-2 0,-3 0,-1 1,-2 1,-3 2,-7 6,-13 12,-18 6,-5 12,-10 18,-13l8 -3 4 -2 4 0c4,0 8,1 11,2 3,2 4,4 4,7l0 3c-1,4 -3,6 -5,8l-4 4 -3 3zm-5 -10l1 -1 3 -3c0,0 0,-1 0,-2 0,0 -1,-1 -3,-1l-4 2 -2 1 -2 0c-1,1 -2,2 -4,3 -1,0 -2,1 -3,2 -3,2 -4,5 -6,7 0,1 0,2 1,2l2 0c6,-2 12,-5 17,-10z"></path>     <path class="fil1" d="M1710 809c-1,1 -2,2 -5,3 -2,0 -4,-1 -5,-3 -1,-1 -2,-3 -2,-5l-1 -3c0,-2 1,-3 2,-5 1,-1 3,-2 5,-2 2,0 3,0 5,2 1,1 2,3 2,4l0 3c0,2 0,4 -1,6zm-17 29l-4 5 -3 5c-2,3 -4,6 -6,10 -2,4 -4,9 -5,14l-2 7 -1 7c-1,2 -2,3 -4,4 -1,0 -2,0 -3,-1 -2,-1 -3,-3 -3,-6l0 -7c2,-7 4,-14 6,-20 2,-7 4,-13 7,-18 1,-1 2,-3 2,-4 1,-1 2,-3 3,-4 1,-2 3,-3 5,-3 2,0 4,1 6,3 1,1 1,2 2,4l0 2c0,1 0,2 0,2z"></path>    </g>   </g>   <path class="fil2" d="M270 529c8,-39 22,-77 33,-114 0,0 0,-1 1,-1 1,0 1,1 2,1 1,2 2,3 4,3 0,0 0,1 1,1 5,7 2,17 3,28 0,1 0,1 1,2 1,2 1,3 0,5 0,4 -1,9 -2,13 0,1 -3,13 -4,21 -12,35 -13,114 -19,153 -1,9 -1,18 -3,26 -1,4 -1,5 -4,6 -9,2 -19,1 -26,-3 -3,-2 -4,-5 -4,-8 1,-2 1,-4 1,-8 4,-46 6,-78 16,-125zm239 -47c-8,-40 -18,-58 -29,-97 -9,-25 -23,-53 -34,-79 -12,-25 -29,-45 -40,-67 -1,-2 1,-3 2,-4 17,-5 25,12 33,24 17,-6 34,-12 51,-18 28,-10 59,-22 79,-35 5,-2 10,-2 12,-8 -5,-1 -13,0 -21,-1 -13,-2 -28,3 -41,4 -46,4 -94,12 -140,21 -19,4 -37,14 -56,17 -11,2 -24,7 -34,10 -12,4 -25,8 -37,11 -4,9 -4,19 -7,28 -5,15 -3,16 -2,28 1,2 0,4 0,5 -4,10 -5,23 -4,35 0,4 1,4 1,6 74,10 144,24 220,36 1,0 4,0 4,1 1,1 1,3 0,3 -8,4 -19,6 -29,6 -44,4 -84,-6 -125,-13 -27,-3 -50,-6 -71,-3 -1,0 -1,7 0,9 1,2 2,4 2,6 2,9 -1,18 0,26 1,8 0,6 1,14 4,38 3,43 5,78 0,5 0,8 0,13 0,5 -3,18 -4,26 0,1 -1,2 -2,1 -4,-2 -2,-8 -4,-11 -1,-2 -1,-2 -2,-4 -2,-16 -4,-32 -6,-48 -7,-46 -14,-90 -17,-115 -5,0 -10,-1 -15,-1 -54,-3 -112,3 -162,-6 -4,0 -5,-1 -8,-4 -11,-12 -30,-21 -29,-41 0,-7 2,-10 7,-14 49,-40 134,-78 196,-98 2,-84 14,-177 38,-222 15,-4 26,4 27,18 25,12 48,45 61,69 7,13 14,24 20,42 2,8 5,13 5,19 -1,7 -4,5 -8,1 -3,-5 -6,-11 -9,-17 -4,-8 -10,-15 -14,-22 -5,-9 -10,-19 -16,-28 -6,-8 -12,-16 -19,-24 -6,-6 -16,-13 -22,-18 -6,9 -4,25 -6,35 -1,7 -2,14 -3,22 -2,15 -2,30 -3,47 0,14 -1,31 -1,47 0,5 -1,9 -1,14 4,0 9,-2 13,-4 82,-24 159,-45 246,-43 8,0 25,4 32,11 17,3 49,2 60,16 4,8 2,14 0,17 -10,11 -24,15 -35,22 -22,12 -45,24 -68,35 -14,7 -29,13 -45,18 34,51 73,137 65,197 -1,2 -1,3 -2,4 -2,1 -3,3 -4,5 0,4 -4,6 -5,-2zm-306 -205c-18,10 -42,14 -61,22 -29,11 -55,22 -82,36 -2,2 -8,4 -7,5 25,5 58,5 87,8 7,1 11,2 20,3 16,2 34,4 50,6 0,-5 0,-9 -1,-13 -3,-19 -5,-42 -6,-67z"></path>  </g> </g></svg>